<svg xmlns="http://www.w3.org/2000/svg" viewBox="0 0 32 32" fill="#12100b" xmlns:v="https://vecta.io/nano"><path d="M22.84 10.83a2.73 2.73 0 0 0-.66-1 2.65 2.65 0 0 0-1-.66 4.88 4.88 0 0 0-1.63-.3h-3.54-3.54a4.88 4.88 0 0 0-1.63.3 2.65 2.65 0 0 0-1 .66 2.73 2.73 0 0 0-.66 1 4.88 4.88 0 0 0-.3 1.63V16v3.55a4.94 4.94 0 0 0 .3 1.63 2.89 2.89 0 0 0 1.67 1.66 4.88 4.88 0 0 0 1.63.3l3.54.06 3.54-.06a4.88 4.88 0 0 0 1.63-.3 2.89 2.89 0 0 0 1.67-1.66 4.94 4.94 0 0 0 .3-1.63l.05-3.55-.05-3.54a4.88 4.88 0 0 0-.3-1.63zM16 20.51A4.51 4.51 0 1 1 20.5 16a4.51 4.51 0 0 1-4.5 4.51zm4.68-8.14a1.05 1.05 0 1 1 1.06-1 1 1 0 0 1-1.06 1zm-4.68.71A2.93 2.93 0 1 0 18.92 16 2.92 2.92 0 0 0 16 13.08zM16 0A16 16 0 0 0 0 16h0a16 16 0 0 0 32 0h0A16 16 0 0 0 16 0zm8.72 19.62a6.32 6.32 0 0 1-.41 2.13 4.11 4.11 0 0 1-1 1.55 4.44 4.44 0 0 1-1.55 1 6.61 6.61 0 0 1-2.13.4l-3.62.06c-2.38 0-2.68 0-3.62-.06a6.61 6.61 0 0 1-2.13-.4 4.44 4.44 0 0 1-1.55-1 4.11 4.11 0 0 1-1-1.55 6.32 6.32 0 0 1-.41-2.13V16v-3.61a6.22 6.22 0 0 1 .41-2.13 4.23 4.23 0 0 1 1-1.56 4.27 4.27 0 0 1 1.55-1 6.58 6.58 0 0 1 2.13-.41h3.62 3.62a6.58 6.58 0 0 1 2.13.41 4.27 4.27 0 0 1 1.55 1 4.23 4.23 0 0 1 1 1.56 6.22 6.22 0 0 1 .41 2.13l.05 3.61-.05 3.62z"/></svg>
