<svg id="Layer_1" data-name="Layer 1" xmlns="http://www.w3.org/2000/svg" viewBox="0 0 1080 321.39"><defs><style>.cls-1{fill:#3caf6e}</style></defs><path class="cls-1" d="M281.92 0h29.65v321.39h-29.65zM243.79 0h29.65v321.39h-29.65zM320.06 291.74h115.57v29.65H320.06zM320.06 253.6h115.57v29.65H320.06zM0 0h235.31v29.65H0zM121.9 76.27h29.65v245.12H121.9zM0 38.13h235.31v29.65H0zM83.76 76.27h29.65v245.12H83.76z"/><path class="cls-1" d="M444.11 321.39V174.31L333.63 0h35.11l105.02 165.7v155.69h-29.65z"/><path class="cls-1" d="M482.24 321.39V163.24L378.78 0h35.1l98.01 155.03v166.36h-29.65zM476.13 82.55 528.32 0h35.09l-69.8 110.12-17.48-27.57zM966.59 76.27h29.65v245.12h-29.65zM928.45 76.27h29.65v245.12h-29.65zM844.69 0H1080v29.65H844.69zM844.69 38.13H1080v29.65H844.69zM498.63 118.05 573.41 0v55.39l-57.22 90.35-17.56-27.69zM620.02 0h29.65v321.39h-29.65zM581.89 0h29.65v321.39h-29.65zM758.41 321.39 658.15 140.08V78.8l134.14 242.59h-33.88zM801.99 321.39 658.15 61.27V0l177.72 321.39h-33.88zM806.56 250.17V0h29.65v303.79l-29.65-53.62zM768.43 181.2V0h29.65v234.83l-29.65-53.63z"/></svg>
