<svg xmlns="http://www.w3.org/2000/svg" viewBox="0 0 50.05 20.61" xmlns:v="https://vecta.io/nano"><path d="M14.69 20.52H9.2v-7.83H5.65v7.83H0V.34h5.65v7.51H9.2V.34h5.49v20.18zm25.11.09a10.34 10.34 0 0 0 10.25-10.35 10.25 10.25 0 0 0-19.49-4.43c0-2.52-2.48-5.49-5.38-5.5h-9.35v20.18h8.72a6.07 6.07 0 0 0 6-5.66 10.28 10.28 0 0 0 9.23 5.76zm-16-8.2a1.6 1.6 0 0 1 1.44 1.7 1.6 1.6 0 0 1-1.44 1.7H21v-3.4zm0-7.58a1.61 1.61 0 0 1 1.44 1.7 1.61 1.61 0 0 1-1.44 1.71h-2.75V4.83zm3.69 5.43A4.21 4.21 0 0 0 29.59 9a9.52 9.52 0 0 0 0 2.82 3.86 3.86 0 0 0-2.08-1.55zm7.15 0a5.14 5.14 0 1 1 5.14 5.14 5.14 5.14 0 0 1-5.14-5.14zm5.14 4a4 4 0 1 0-4-4 4 4 0 0 0 4 4" fill="#12100b"/></svg>
