<svg xmlns="http://www.w3.org/2000/svg" viewBox="0 0 56.68 14.38" fill="#12100b" xmlns:v="https://vecta.io/nano"><path d="M43.19 7a3.44 3.44 0 0 0-2.35-2c-2.77-.74-6.28-.44-8.19 1.87a5.38 5.38 0 0 0-.93 5.37 3.52 3.52 0 0 0 2.57 2c2.33.31 5.33.43 7.2-1.27A5.66 5.66 0 0 0 43.19 7zm-5.74 4.27a1 1 0 0 1-.92 0c-.55-.31-.37-1-.3-1.45.26-.84.55-2 1.6-2.2a.87.87 0 0 1 .93.52 3.33 3.33 0 0 1-1.31 3.17zM12.25 0l-2 5.68L8.8 0h-4L0 13.85h4.62l1.84-5.28 1.37 5.28H12L16.86 0zm7.65 4.13A2.67 2.67 0 0 0 22 3a2 2 0 0 0-.18-2 2.91 2.91 0 0 0-2.41-.7 2.35 2.35 0 0 0-2 1.42 1.92 1.92 0 0 0 .26 1.67 2.63 2.63 0 0 0 2.24.74zm-3.36.93l-3.09 8.8h4.38l3.09-8.8zm16.95-.01H28.4L25.86 8l2.78-8h-4.47l-4.85 13.85h4.46L25 10.37l.7 3.48h4.7l-.79-4.23 3.88-4.57zm20-.11a5.82 5.82 0 0 0-3.89 1.45l.51-1.33h-4.62l-3.09 8.8H47l1.49-4.22a1.24 1.24 0 0 1 1.29-1c.66 0 .82.67.62 1.21l-1.4 4h4.46l2-5.71c.55-1.57 0-3.21-2-3.21zM55.77 12a.93.93 0 0 0-.93.92h0a.92.92 0 0 0 .92.92h0a.92.92 0 0 0 .91-.92h0a.92.92 0 0 0-.91-.92zm0 1.73a.81.81 0 0 1-.81-.81h0a.8.8 0 0 1 .8-.81h0a.81.81 0 0 1 0 1.62z"/></svg>
