<svg xmlns="http://www.w3.org/2000/svg" viewBox="0 0 59.2 48" xmlns:v="https://vecta.io/nano"><path d="M0 0h34.97v3.85H0z" fill="#1b6ab3"/><path d="M.08.08h34.81v3.69H.08z" fill="#1b6ab3"/><path d="M18.45 11.54h3.85V48h-3.85z" fill="#1b6ab3"/><path d="M18.53 11.62h3.69v36.3h-3.69z" fill="#1b6ab3"/><path d="M0 5.77h34.97v3.85H0z" fill="#1b6ab3"/><path d="M.08 5.85h34.81v3.69H.08z" fill="#1b6ab3"/><path d="M12.68 11.54h3.85V48h-3.85z" fill="#1b6ab3"/><path d="M12.76 11.62h3.69v36.3h-3.69z" fill="#1b6ab3"/><g fill="#1b6ab3"><path d="M24.22 44.15h34.97V48H24.22z"/><path d="M24.3 44.23h34.81v3.69H24.3zM36.9 0h3.85v36.46H36.9z"/><path d="M36.98.08h3.69v36.3h-3.69zm-12.76 38.3h34.97v3.85H24.22z"/><path d="M24.3 38.46h34.81v3.69H24.3zM42.67 0h3.85v36.46h-3.85z"/><path d="M42.75.08h3.69v36.3h-3.69z"/></g></svg>
