<svg xmlns="http://www.w3.org/2000/svg" viewBox="0 0 49.47 30.6" xmlns:v="https://vecta.io/nano"><path d="M41.68 30.38v-6.57H39v6.57zm-14.35-2.72v-3.74h-2.62v2.85a5.08 5.08 0 0 1-.09 1.28 1.41 1.41 0 0 1-1.46.87c-.9 0-1.31-.35-1.48-.9a2.7 2.7 0 0 1-.08-.58v-.7-2.82h-2.66v3.75a2.54 2.54 0 0 0 .74 1.92 4.94 4.94 0 0 0 3.4 1 4.71 4.71 0 0 0 3.5-1 2.42 2.42 0 0 0 .75-1.91zm-12.9-.47a2.6 2.6 0 0 0-.4 0H11a3.47 3.47 0 0 0-.4 0 2.84 2.84 0 0 0 .25-.28l1.35-2.23a5.57 5.57 0 0 0 .3-.58 4.36 4.36 0 0 0 .29.6l1.39 2.24a2.08 2.08 0 0 0 .21.25zm5 3.19l-6-9h-3.32l.88 1 .08.05-.08.05-5.22 7.9h3L9.61 29a.58.58 0 0 0 .05-.17 1.78 1.78 0 0 0 .2 0h5.4a.47.47 0 0 0 .19 0v.14l.85 1.37zM38.25 27A4.57 4.57 0 0 0 37 24.25l-2.25-2.84h-3.11l1.78 2a6.54 6.54 0 0 0 .68.63 2.94 2.94 0 0 0-1.41-.35 6.26 6.26 0 0 0-3 .73A3 3 0 0 0 28 27.09a3.05 3.05 0 0 0 1 2.19c1.19 1.2 3.37 1.32 4.17 1.32a6.46 6.46 0 0 0 4.07-1.22 3.09 3.09 0 0 0 1-2.37zm-2.6.08a1.67 1.67 0 0 1-1 1.48 3.22 3.22 0 0 1-1.5.32 3.61 3.61 0 0 1-1.52-.34 1.67 1.67 0 0 1-1-1.42 1.82 1.82 0 0 1 1.19-1.57 3.26 3.26 0 0 1 1.27-.25 3.71 3.71 0 0 1 1.31.22 1.82 1.82 0 0 1 1.25 1.56zM40.82 0a8.56 8.56 0 0 0-5.36 1.86 8.65 8.65 0 0 0-10.72 0 8.67 8.67 0 0 0-10.74 0A8.54 8.54 0 0 0 8.65 0a8.65 8.65 0 1 0 0 17.29A8.54 8.54 0 0 0 14 15.43a8.67 8.67 0 0 0 10.73 0 8.65 8.65 0 0 0 10.72 0 8.56 8.56 0 0 0 5.36 1.86A8.65 8.65 0 1 0 40.82 0zM12.59 14a6.67 6.67 0 1 1 0-10.75 8.66 8.66 0 0 0 0 10.75zM14 12.61a6.68 6.68 0 0 1 0-7.92 6.68 6.68 0 0 1 0 7.92zM23.32 14a6.68 6.68 0 0 1-7.89 0 8.7 8.7 0 0 0 0-10.75 6.68 6.68 0 0 1 7.89 0 8.66 8.66 0 0 0 0 10.75zm1.42-1.41a6.64 6.64 0 0 1 0-7.92 6.68 6.68 0 0 1 0 7.92zM34 14a6.68 6.68 0 0 1-7.89 0A8.66 8.66 0 0 0 28 8.65a8.56 8.56 0 0 0-1.87-5.38 6.68 6.68 0 0 1 7.89 0A8.7 8.7 0 0 0 34 14zm1.42-1.41a6.68 6.68 0 0 1 0-7.92 6.68 6.68 0 0 1 0 7.92zm5.36 2.7a6.73 6.73 0 0 1-3.9-1.29 8.66 8.66 0 0 0 0-10.75A6.73 6.73 0 0 1 40.82 2a6.67 6.67 0 1 1 0 13.33z" fill="#12100b"/></svg>
