<svg xmlns="http://www.w3.org/2000/svg" viewBox="0 0 42.01 39.19" xmlns:v="https://vecta.io/nano"><path d="M22.82 2.67a2.06 2.06 0 0 1 0-.26 2.25 2.25 0 1 1 2.4 2.09H25l-.13.06c-.12.2.33.16 0 1a.57.57 0 0 1 0 .19c0 .33-.15 1.32-.17 1.85.07.08.09.11.08.3a10.34 10.34 0 0 1-.18 1.25.67.67 0 0 1-.32.49 8.62 8.62 0 0 1-.6 2.12 2.66 2.66 0 0 1-.22 1.13 4.74 4.74 0 0 1-.58 2.58 3.69 3.69 0 0 0 .12 1.94c.18.75.67 1.06.74 1.83a11.21 11.21 0 0 1-.25 4.44l.34.8c.42.2 1.45.72.88 1.55a14.56 14.56 0 0 1 3 1.75A12.81 12.81 0 0 1 29 28.92a2.07 2.07 0 0 1 1.2.51 43 43 0 0 1 5.66 4.31l.57.36v.1l-.13.32a2.72 2.72 0 0 0 .32.25h.23a1 1 0 0 0 .49.3c.26-.06.21 0 .43-.25.08-.08.2 0 .2 0a2.55 2.55 0 0 1 .49-.42 1.36 1.36 0 0 1 .53-.12c.12 0 .1.13.09.16a5.55 5.55 0 0 0-.58.26 5.09 5.09 0 0 0-.61.83c.7-.09 1.12.09 1.7 0a1.39 1.39 0 0 0 .88-.24 3.84 3.84 0 0 1 .59-.34.76.76 0 0 1 .79.12c.17.19.27.19 0 .46l-.4.4a13.73 13.73 0 0 1-1.15 1 6.67 6.67 0 0 1-1.22.78 7.87 7.87 0 0 0-1.2 1 4.18 4.18 0 0 1-.38.25c-.23.16-.31 0-.46-.26 0 0-.07-.11-.19-.34s-.23-.54-.18-.53a2.52 2.52 0 0 1-.8-.94 2.49 2.49 0 0 1-.74-.7l-.51-.42c-.6.13-.73-.24-2.29-1.35a1.59 1.59 0 0 1-.85-.39l-2.68-2a5.43 5.43 0 0 1-.9-.5 6.67 6.67 0 0 1-.69-.14 4.22 4.22 0 0 0-.77-.17 6.68 6.68 0 0 1-2.15-.73c-.33-.16-.62-.24-.91-.36a10.46 10.46 0 0 0-1.62-.61 5.49 5.49 0 0 1-1.34-.52 1.31 1.31 0 0 0-.31-.16.66.66 0 0 0-.45.07l-1.46.74-1.2.72c-.37.22-.8.42-1.23.63l-1.93.87a24 24 0 0 1-2.54 1.73l-1.41.72c-.33.1-.85.63-1.37 1l-.71.56c-.24.21-.22.31-.66.12-.12.1-.22.16-.3.22-.32.23-.35.18-.47.17-.22.19-.25.09-.44.32s0 .15-.28.25c-.05 0-.08.09-.12.13-.22.18-.22.68-.75.72-.3.21-.22.48-.45.47 0 .22-.41.54-.49.54-.66.24-.71-.25-1.51.11a1.57 1.57 0 0 1-.45.22 1.37 1.37 0 0 1-1-.21A3.93 3.93 0 0 1 .06 38c-.13-.31-.06-.5.35-.79a.74.74 0 0 1 .48-.2c.14-.06.1 0 .36-.07s.14 0 .44 0a.88.88 0 0 1 .28-.1l.46-.17s.06-.05.29 0l.47-.23c0-.3 0-.28.15-.4s.21-.13.33 0l.08-.08c0-.16-.16-.23-.11-.58-.07-.14-.16-.3-.13-.41s.05-.16.12-.19.09 0 .13 0a1.1 1.1 0 0 1 .13.32c0 .26.1.6.36.41s.19-.58.5-.49l.23.2a1.41 1.41 0 0 1 .31-.22s-.17-.18 0-.33a3 3 0 0 0 .47-.41 12.07 12.07 0 0 1 1.64-1.57 15.56 15.56 0 0 1 3.9-2.3 1.7 1.7 0 0 1 1.35-.75 10.13 10.13 0 0 1 2.84-2.91c.31-.55.44-.49.83-.6s.39-.25.53-.52c.14-.54-.32-2 .84-2.07a6.14 6.14 0 0 1 .45-.59 5.12 5.12 0 0 1-.31-1.17s-.46-.35-.32-.76a6.31 6.31 0 0 1-.67-1h-.15-.21a.81.81 0 0 1-.69.6 4.87 4.87 0 0 1-2.39 2.74 3.93 3.93 0 0 0-.84 1.51 1.18 1.18 0 0 0 0 .74c-.08.27 0 .29 0 .29a.4.4 0 0 0 .23.26c.19.05.39 0 .38.26s-.38.23-.55.19c-.64-.1-.44-.52-.85-.37s-.44.81-1 .73c-.06 0-.05-.18 0-.27s.2-.28.12-.34l-1 .34c-.32.08-.67-.08-.35-.29a2.4 2.4 0 0 0 .6-.29s.14-.17-.12-.09a2.45 2.45 0 0 1-1 .13 4.65 4.65 0 0 1-.68-.13c-.08 0-.15-.23 0-.23a5.85 5.85 0 0 0 1.3-.19c.23-.09.65-.34.89-.46a2 2 0 0 1 .4-.45c.24-.27.44-.44.65-.72a12.65 12.65 0 0 1 1.11-2.13 9.32 9.32 0 0 1 1.21-1.65 2.58 2.58 0 0 1 .77-1.37 11.58 11.58 0 0 1 .57-1.09l.24-.39c.2-.32.41-.9 1.19-1a3.43 3.43 0 0 0 .46-.43c.19-.17.15-.43.31-.61-.25-.24-.88-.7-.94-1.33a2 2 0 0 1 .58-1.63 1.89 1.89 0 0 1 1.49-.63 1.43 1.43 0 0 1 1.08.58c.22.22.3.07.39.34.61.16.57.09.56.53a.71.71 0 0 1 .25.5 2.14 2.14 0 0 1 .78-1l.33-1.12a9 9 0 0 1 .34-1c-.12-.76.11-.88.4-1.55-.05-.09 0-.12 0-.27l.41-1.4a.2.2 0 0 1 .19-.15l.37-1.56a1.19 1.19 0 0 0-.06-.94c0-.1 0-.23-.08-.33a10.42 10.42 0 0 1-.47-1 6.59 6.59 0 0 1-.21-.82c-.1-.33 0 0 0 0" fill="#12100b"/></svg>
