<svg xmlns="http://www.w3.org/2000/svg" viewBox="0 0 71.12 18.19" fill="#12100b" xmlns:v="https://vecta.io/nano"><path d="M20.74.08c-4.14 0-7.53 4.64-7.53 8.66 0 4.22 2.48 9.38 7.53 9.36s7.67-5.57 7.67-9.36c0-4.21-3.52-8.69-7.67-8.66zm0 .16c3.47 0 4.41 3.83 4.41 8.5 0 6.15-1.13 9.18-4.41 9.18s-4.34-2.49-4.34-9.18c0-4.2.87-8.5 4.34-8.5zm9.04 8.61c0-4.57 3.64-8.62 6.74-8.82a8 8 0 0 1 3.4.8A1.78 1.78 0 0 0 42 0h.12v6.23H42C42 6 40.84.18 36.52.18 33.33.18 33 5.79 33 8.85S33.12 18 36.84 18c1.8 0 3.13-.79 3.48-2.39v-4.89h-1.51v-.21h5.86v.21h-1.44v7.09h-.12a1.4 1.4 0 0 0-1.43-1c-1.52 0-3 1.33-4.72 1.31-4.64-.05-7.16-4.69-7.18-9.26zM1.83.69H0v-.2h6.4v.2H4.79l4.58 12.42 4-12.42h-1.56v-.2h3.38v.2h-1.54L8.09 18 1.83.69zm43.74 13.08V.67H43.8V.48h6.41v.19h-1.74v14.37c.38 1.65 1.07 2.89 3.4 2.91a4.5 4.5 0 0 0 4.52-3.29V.67h-2V.49h16.33v6.28h-.12c-.3-4.06-1.87-5.59-4.61-6a21.8 21.8 0 0 0-3.19 0v8a4.17 4.17 0 0 0 3-.66 4.3 4.3 0 0 0 1-2.59h.14v7h-.15a5 5 0 0 0-1-2.58 3.34 3.34 0 0 0-3-.84v8.57a15.6 15.6 0 0 0 3.81-.16c3.21-.88 4.34-3.59 4.32-6.3h.19v6.66H58.35v-.2h1.44v-17h-3.12v14a4.79 4.79 0 0 1-5 3.53c-3.08 0-6.13-1.4-6.14-4.42z"/></svg>
