<svg xmlns="http://www.w3.org/2000/svg" viewBox="0 0 75.04 23.54" xmlns:v="https://vecta.io/nano"><path d="M52.57 1.81a9.27 9.27 0 0 0-3 2.36C47.89 6 46.94 8 47.64 8.54c.28.2.9.24 2-.78a9 9 0 0 0 2.4-3.32 4.6 4.6 0 0 0 .5-2.63m9 3.24C59.7 4.12 58.38 3 57 2.27a5.18 5.18 0 0 0-3.24-.82 3.17 3.17 0 0 0-.44.12s.55 1.87-1.64 5-4.22 3.17-4.79 2.29.17-2.81 1.46-4.49a16.18 16.18 0 0 1 3.73-3.21s-.76-.47-2.62.59a26.09 26.09 0 0 0-7.82 7.57c-2.89 4.12-3.47 6.39-3.89 8.16s0 3.7 2 3.7 4.27-3 4.92-4.06c1.21-2 2-5 .35-4.54a3.44 3.44 0 0 0-1.87 2 8.05 8.05 0 0 0-.6 1.73 6.59 6.59 0 0 0-1.6.94 10.8 10.8 0 0 0-1.52 1.34 9.6 9.6 0 0 1 1.14-3.73 6.08 6.08 0 0 1 4.41-3.46c1.06-.09 2.44.82 1.27 4.15s-4.69 7.36-8.32 7.45c-3.36 0-5.55-4.24-.89-11.71C42.21 3 48.28.45 50.25.17s2.61.59 2.61.59A8.43 8.43 0 0 1 56.6.14C59 .3 60.86 2 63.32 3.2c-.64.61-1.25 1.25-1.79 1.85m10.8-2.78a10.3 10.3 0 0 1-6.19 1.83c-.57.58-1.16 1.25-1.76 2 3.84.77 7.21-1.62 9-3.64A12 12 0 0 0 75 0a14.56 14.56 0 0 1-2.72 2.23M67.21 13.1l.07-.16a.38.38 0 0 0-.35-.34c-.37 0-.87.05-2.18 1.5a20.23 20.23 0 0 0-2.78 4c-.75 1.36-1 2.39-.62 2.65a.64.64 0 0 0 .45.05 2.63 2.63 0 0 0 1.13-.93c.24-.27.49-.66.81-1.09.86-1.18 3-4.88 3.47-5.63m-13.6 1.57c.22-.57.5-1.69-.08-2.13s-2.2.62-2.22 1.75A2 2 0 0 0 52.7 16c.15 0 .21 0 .29-.09a11.62 11.62 0 0 0 .62-1.28m-1.2 2.1a5.13 5.13 0 0 1-1.08-.7 3.39 3.39 0 0 1-.82-1h-.07s-.12.13-1 1.36-2.13 3.81-1 4.24c.75.28 2-1 2.68-1.91a15.11 15.11 0 0 0 1.26-1.92v-.1m13.32 2.95c-.32.51-.69 1.49.36.89 1.29-.75 3.11-3.52 3.11-3.52H70a26.81 26.81 0 0 1-2.51 3.3c-1.3 1.44-2.89 2.75-4 2.62-1.31-.16-.9-1.87-.9-1.87s-1.86 2-3.15 1.84c-1.75-.18-1.21-2.34-1.21-2.34s-2 2.42-3.32 2.34c-2.11-.12-1.58-2.68-1-4.49.32-1 .61-1.72.61-1.72a5.19 5.19 0 0 1-.67.12c-.23 0-.65.07-.65.07s-.88 1.54-1.58 2.47-3.62 4.2-5.4 3.56-1.09-3.08-.14-5.05c1.37-2.88 5.25-7 7.49-6.47s0 4.8 0 4.8h0a1 1 0 0 0 .45 0 5.82 5.82 0 0 0 .84-.25 48.83 48.83 0 0 1 4.91-8.08c2.57-3.19 7.7-8.69 9.72-7.36.49.33.27 1.45-.39 2.82-.3.1-.61.18-.91.25a7.34 7.34 0 0 0 .82-2c.31-1.66-3.55 1.83-6.3 5.57a52.11 52.11 0 0 0-4.41 7.12 11 11 0 0 0 1.42-1A41.54 41.54 0 0 0 63.3 10a40.09 40.09 0 0 0 3-3.43 8.46 8.46 0 0 0 .88-.1 38 38 0 0 1-3.28 3.88c-1.1 1.11-2.29 2.3-3.32 3.17a28.19 28.19 0 0 1-2.91 2.17s-2.41 4.85-1.1 5.16c.77.18 2.29-2.16 2.29-2.16s2-3 3.18-4.39c1.63-1.85 3-2.92 4.44-2.95a1.7 1.7 0 0 1 1.3.86l.39-.6h2.33l-4.77 8.07m6.59-17.41a10.24 10.24 0 0 1-6.18 1.83c-.57.58-1.16 1.25-1.76 2 3.84.77 7.21-1.62 9-3.64A11.6 11.6 0 0 0 75 0a14.56 14.56 0 0 1-2.72 2.23M39.09 6h-2.26l-1.27 2h2.25l1.28-2zm-10.66 7.07c1-1.31 3.6-5.92 3.6-5.92a.39.39 0 0 0-.36-.33c-.36 0-1 .11-2.18 1.62a29.77 29.77 0 0 0-2.84 4c-.75 1.37-1.08 2.33-.64 2.6a.58.58 0 0 0 .45 0 2.8 2.8 0 0 0 1.15-.92c.24-.28.5-.64.82-1.07m-12.08-6.2c-.62-.47-2.2.63-2.21 1.75s1.42 1.51 1.6 1.51h.16L16 10q.25-.51.45-1c.22-.57.5-1.69-.08-2.13m-.94 4a5.87 5.87 0 0 1-1.22-.56 2.61 2.61 0 0 1-.87-1h-.07s-.15.2-1 1.44-2.1 3.78-.93 4.22c.75.28 2-1.05 2.7-1.91a22.52 22.52 0 0 0 1.42-2.13v-.11m18.37.76h.83s-4.13 6-6.46 5.7c-1.31-.15-.92-1.76-.92-1.76s-1.83 2.14-3.51 1.71-.54-2.93-.54-2.93c-.17.07-3.47 3.79-5.79 2.89s-1.17-4-.71-5 .83-1.56.83-1.56-.38.11-.62.16l-.58.12s-1.14 1.87-1.84 2.8-3.73 4.15-5.52 3.51-1.32-3.1-.33-5c1.6-3.16 5.4-7 7.69-6.46s.39 4.33.39 4.33.46.07 1.56-.68c1.59-1.09 3.69-4 5.95-3.66C25.36 5.86 26.35 7 25 9c-.44.67-1.17 1.26-1.73.67-.34-.36 0-1 .33-1.49a1.42 1.42 0 0 1 1.21-.56s.38-.85-.58-.84c-.77 0-2.72 1.81-3.82 3.63-1 1.66-2.54 4.5-1 5.12s4.08-2.62 5.33-4.28 4.07-5.45 6.44-5.6a1.6 1.6 0 0 1 1.31.69l.28-.43h2.37l-4.82 8c-.35.54-.64 1.43.36.87a18.7 18.7 0 0 0 3.11-3.26m-1.28 12a10 10 0 0 0-6-1.75 3.65 3.65 0 0 0-2.91 1.59c-.9-1.59-2.7-2.56-5.46-2.53C13.69 20.9 9.26 23 5.75 23A5.38 5.38 0 0 1 0 17.08c.15-6.6 5.72-12.54 9.88-15.21C12.28.34 14.29-.12 15.6 0A1.91 1.91 0 0 1 17 2.87c-1.07 2.38-2.54 2.18-2.49 1a1.92 1.92 0 0 1 .9-1.46 1.93 1.93 0 0 1 .87-.22c.21-.17.37-1.48-1.34-1s-3.81 2.1-5.77 4.28-5 6.29-5.79 10.6c-.36 2-.13 5.66 4.62 5.62 4 0 10-2.69 15.41-2.63a10.51 10.51 0 0 1 5.4 1.47 14.79 14.79 0 0 1 3.7 3" fill="#12100b"/></svg>
