<svg xmlns="http://www.w3.org/2000/svg" viewBox="0 0 171.49 51.03" xmlns:v="https://vecta.io/nano"><path d="M38.71 0h4.71v51.03h-4.71zM0 6.06h37.36v4.71H0zm13.3 6.05h4.71v38.92H13.3zM52.98 0l17.54 27.68v23.35h4.71V26.31L58.55 0h-5.57zm30.91 0l-8.28 13.11 2.77 4.38L89.46 0h-5.57zm63.54 12.11h4.71v38.92h-4.71zm-13.3-6.05h37.36v4.71h-37.36z" fill="#ff6430"/><path d="M98.45 0h4.71v51.03h-4.71z" fill="#ff6430"/><path d="M104.51 22.24l15.92 28.79h5.38l-21.3-38.52v9.73zM122.02 0v28.77l4.71 8.52V0h-4.71zm-71.2 46.33h18.35v4.71H50.82z" fill="#ff6430"/><path d="M44.77 0h4.71v51.03h-4.71zm6.05 40.27h18.35v4.71H50.82zM0 0h37.36v4.71H0zm19.36 12.11h4.71v38.92h-4.71zM60.15 0l16.43 25.92v25.11h4.7V24.62L65.72 0h-5.57zm93.34 12.11h4.71v38.92h-4.71zM134.13 0h37.36v4.71h-37.36zM91.05 0L79.18 18.75l2.79 4.39 9.08-14.35V0z" fill="#ff6430"/><path d="M92.4 0h4.71v51.03H92.4z" fill="#ff6430"/><path d="M104.51 0v9.73l22.84 41.3h5.38L104.51 0zm23.56 0v39.73l4.71 8.51V0h-4.71z" fill="#ff6430"/></svg>
