<svg xmlns="http://www.w3.org/2000/svg" viewBox="0 0 232 779.62" xmlns:v="https://vecta.io/nano"><path d="M232 603.63H0v-21.4h232v21.4h0zM48.93 779.62h-21.4V609.76h21.4v169.86h0zM232 719.15H55.05v-21.4H232v21.4h0zm0-260.12H125.83L0 538.78v-25.34l119.61-75.82H232v21.41h0zM59.59 435.91L0 398.24v-25.33l79.5 50.39-19.91 12.61h0zM232 109.4H55.05V87.99H232v21.41h0zM48.93 169.86h-21.4V0h21.4v169.86h0z" fill="#ff6430"/><path d="M232 332.04H0v-21.4h232v21.4h0z" fill="#ff6430"/><path d="M232 232.14l-130.88 72.38H56.88L232 207.69v24.45h0zm-101.19-7.23H0v-21.4h169.52l-38.71 21.4h0zM232 548.58h-21.41v-83.43H232v83.43h0z" fill="#ff6430"/><path d="M232 576.11H0V554.7h232v21.41h0zm-27.53-27.53h-21.4v-83.43h21.4v83.43h0zM21.4 779.62H0V609.76h21.4v169.86h0zm210.6-88H55.05v-21.4H232v21.4h0zm0-260.12H117.84L0 506.19v-25.34l111.91-70.75H232v21.4h0zm0-349.63H55.05V60.46H232v21.41h0zM21.4 169.86H0V0h21.4v169.86h0zm63.81 249.81L0 365.69h39.98L105.2 407l-19.99 12.67h0z" fill="#ff6430"/><path d="M232 359.57H0v-21.4h232v21.4h0z" fill="#ff6430"/><path d="M232 200.69L44.23 304.52H0l232-128.29v24.46h0zm-51.41-3.3H0v-21.41h219.3l-38.71 21.41h0z" fill="#ff6430"/></svg>
